# xmcd
#
# Track frame offsets:
#	150
#	12633
#	28229
#	46065
#	61193
#	68990
#	83639
#	100162
#	118793
#	137060
#	154381
#	171354
#	186331
#
# Disc length: 2844 seconds
#
# Revision: 0
# Processed by: cddbd v1.5.1PL2 Copyright (c) Steve Scherf et al.
# Submitted via: dBpowerAMP V4.0
#
DISCID=b50b1a0d
DTITLE=Various Artist - Voice Of The Spirit: The Gospel Of The South
DYEAR=2006
DGENRE=Gospel
TTITLE0=Mac Wiseman - By The Side Of The Road
TTITLE1=Johnny Cash - Unclouded Day
TTITLE2=Mavis Staples and Marty Stuart - Twleve Gates To The City
TTITLE3=Connie Smith - Over The Next Hill We'll Be Home
TTITLE4=Earl and Randy Scruggs - If I Be Lifted Up
TTITLE5=Ronnie and Del McCoury - My Lord Keeps A Record
TTITLE6=Mighty Clouds Of Joy - We Will Overcome
TTITLE7=Rodney Crowell - Denomination Blues
TTITLE8=John Cowan and Tony Rice - Leave It There
TTITLE9=Laura Cash and Larry Gatlin - Diamonds In The Rough
TTITLE10=Jon Randall and Jessi Alexander - Where The Soul Of A Man Never Dies
TTITLE11=Fisk Jubilee Singers - Ain't No Grace Gonna Hold My Body Down
TTITLE12=Vince Gill - What Are They Doing In Heaven Today?
EXTD=
EXTT0=
EXTT1=
EXTT2=
EXTT3=
EXTT4=
EXTT5=
EXTT6=
EXTT7=
EXTT8=
EXTT9=
EXTT10=
EXTT11=
EXTT12=
PLAYORDER=
